<svg class="Navbar-logo" width="42" height="42" viewBox="0 0 42 42" fill="none" xmlns="http://www.w3.org/2000/svg"><g clip-path="url(#clip0_187_2)"><path d="M40.5905 19.5984C40.5905 19.5984 40.5905 19.5979 40.5905 19.5974H27.4166C27.4861 20.0545 27.5228 20.5228 27.5228 21.0001C27.5228 25.9734 23.608 30.019 18.7964 30.019H15.6162V25.2526H12.9037V32.823H18.7964C24.6446 32.823 29.4794 28.2626 30.1523 22.4023H37.8725C37.1778 31.7835 29.5697 39.1966 20.3179 39.1966C13.4345 39.1966 7.46188 35.0919 4.56865 29.127L2.21484 30.5301C5.58074 37.3327 12.4319 42.0001 20.3184 42.0001C31.5221 42.0001 40.6373 32.5794 40.6373 21.0001V19.5984H40.5909H40.5905Z" fill="#458AC6"></path><path d="M20.3189 0C9.11511 0 0 9.42067 0 21V22.3966H15.6167V11.981H18.7969C22.1187 11.981 25.0101 13.9107 26.4835 16.7413H29.4626C27.8053 12.3217 23.6516 9.17759 18.7964 9.17759H12.9037V19.5983H2.76427C3.45898 10.217 11.0671 2.80344 20.3189 2.80344C27.531 2.80344 33.7434 7.30941 36.4614 13.7399L38.8247 12.3311C35.6255 5.06487 28.534 0 20.3189 0Z" fill="#458AC6"></path></g><defs><clipPath id="clip0_187_2"><rect width="42" height="42" fill="white"></rect></clipPath></defs></svg>